<?xml version="1.0" encoding="UTF-8"?>
<svg version="1.1" xmlns="http://www.w3.org/2000/svg" width="512" height="512">
<path d="M0 0 C2.03442189 1.72994311 2.03442189 1.72994311 4 3 C7.62605594 2.39565734 9.70766543 0.41591251 12.3125 -2 C42.32864753 -29.08774289 84.04988181 -36.46347508 123 -35 C129.45500437 -34.54380816 135.7015214 -33.457832 142 -32 C142.81275391 -31.81727539 143.62550781 -31.63455078 144.46289062 -31.44628906 C163.56307074 -26.99640012 182.32946171 -18.90665704 198 -7 C198.85207031 -6.35546875 199.70414062 -5.7109375 200.58203125 -5.046875 C233.76046053 20.84351221 253.7046761 54.90457033 260.54638672 96.30639648 C261.02505799 100.20403789 261.17925514 104.04056821 261.203125 107.9609375 C261.20882507 108.70977203 261.21452515 109.45860657 261.22039795 110.23013306 C261.22979745 111.81177381 261.2363617 113.39343371 261.24023438 114.97509766 C261.2498333 117.33403264 261.28085914 119.69205403 261.3125 122.05078125 C261.5299893 153.04341187 251.06787387 184.47907061 232 209 C231.40316406 209.804375 230.80632812 210.60875 230.19140625 211.4375 C226.18528141 216.67561592 221.75336836 221.49328876 217.24479675 226.2959137 C216.58750428 226.99612564 215.93021181 227.69633758 215.25300139 228.41776806 C207.87914704 236.23697217 200.30481376 243.85097677 192.70825195 251.45288086 C191.1391373 253.0266399 189.57021409 254.60058985 188.00146484 256.17471313 C183.79134795 260.39778563 179.57804613 264.61766531 175.36368585 268.83650279 C172.72294961 271.48019254 170.08279187 274.12445871 167.44280052 276.76889229 C159.15841718 285.06689556 150.87208267 293.36294322 142.58282119 301.65607351 C141.63553483 302.6038033 140.68825003 303.55153466 139.7409668 304.49926758 C139.27110807 304.96934774 138.80124934 305.4394279 138.31715246 305.92375291 C130.68699773 313.55786445 123.06363749 321.19872301 115.44313023 328.84246366 C107.57885696 336.73051643 99.70877458 344.61274032 91.83331269 352.48962313 C87.42752153 356.89645822 83.02415318 361.30564854 78.62682533 365.7209301 C74.49566942 369.86863127 70.3573297 374.00903061 66.21352386 378.14409256 C64.70173244 379.65511753 63.19246426 381.16867228 61.68603325 382.68504143 C45.39603198 399.07612942 29.24170641 412.96447321 4.875 413.09765625 C-19.49163983 412.49089687 -33.85870762 399.89187448 -50.15429688 383.49267578 C-51.9582028 381.69555386 -53.76316873 379.89949543 -55.56910706 378.10441589 C-59.94473505 373.74914822 -64.30860096 369.38240052 -68.66677964 365.00968011 C-72.21506616 361.45005094 -75.76826453 357.8953937 -79.32493591 354.34414291 C-79.83328719 353.8365578 -80.34163846 353.32897269 -80.86539432 352.80600622 C-81.89854107 351.7744583 -82.93169893 350.74292151 -83.96486777 349.71139573 C-93.63290753 340.05758349 -103.28561815 330.38856107 -112.93307561 320.71418606 C-121.18128984 312.44366964 -129.4424768 304.18630187 -137.71337891 295.93847656 C-147.3480075 286.33071769 -156.9743278 276.71475481 -166.58788538 267.08590877 C-167.61693458 266.05526708 -168.64599411 265.02463569 -169.67506409 263.99401474 C-170.18119609 263.48711136 -170.68732809 262.98020798 -171.20879743 262.45794389 C-174.74687113 258.91558401 -178.29064903 255.37899536 -181.83677673 251.84469986 C-186.62913619 247.06798152 -191.40777081 242.27791682 -196.17796135 237.47904396 C-197.91983793 235.73061666 -199.66587034 233.98631704 -201.41658211 232.24673653 C-214.38829274 219.34984834 -226.10215015 205.89438656 -234.375 189.4375 C-234.77799316 188.65141357 -235.18098633 187.86532715 -235.59619141 187.05541992 C-246.46898589 165.39931 -251.43776106 142.51065945 -251.3125 118.3125 C-251.30926727 117.18723907 -251.30926727 117.18723907 -251.30596924 116.03924561 C-251.25414412 104.79139855 -250.84601195 93.92889044 -248 83 C-247.80132324 82.21592773 -247.60264648 81.43185547 -247.39794922 80.62402344 C-241.30704898 57.20029175 -231.02254321 36.23450492 -215 18 C-214.28199219 17.16082031 -213.56398437 16.32164063 -212.82421875 15.45703125 C-159.14901834 -46.03587153 -62.07228211 -52.08778712 0 0 Z M-184.27832031 45.02392578 C-188.83628084 50.25536828 -192.54556438 55.99773726 -196 62 C-196.33467285 62.58104492 -196.6693457 63.16208984 -197.01416016 63.76074219 C-211.41124121 89.3507419 -214.45152172 119.95472845 -206.875 148.1875 C-198.82017012 175.92143258 -180.38592598 194.76224649 -160.46801758 214.69311523 C-158.80137972 216.3643889 -157.13493706 218.03585723 -155.46867371 219.70750427 C-150.96733426 224.22188518 -146.46273267 228.73299653 -141.95709825 233.24309039 C-139.14054949 236.06257967 -136.32458464 238.88265085 -133.50879478 241.70289803 C-125.69961879 249.52424397 -117.88951317 257.34465898 -110.07594776 265.16162014 C-109.57777931 265.66000816 -109.07961086 266.15839618 -108.56634639 266.67188687 C-108.06707089 267.17138064 -107.56779539 267.67087442 -107.05339032 268.18550438 C-106.04185827 269.19747988 -105.03032778 270.20945694 -104.01879883 271.22143555 C-103.26618713 271.97437939 -103.26618713 271.97437939 -102.49837115 272.74253423 C-94.34969352 280.89516886 -86.20780542 289.05454858 -78.06877784 297.21681606 C-69.6961838 305.61312277 -61.31797602 314.00379339 -52.93410033 322.38883549 C-48.23324384 327.09060785 -43.53498126 331.79492264 -38.84259987 336.50515556 C-34.43571132 340.92848687 -30.02176268 345.34464732 -25.60225105 349.75536537 C-23.981513 351.37533137 -22.36334127 352.99786957 -20.74792862 354.62314606 C-18.54375826 356.83998534 -16.33055161 359.04739283 -14.11482239 361.25267029 C-13.4769773 361.89857178 -12.83913222 362.54447327 -12.1819585 363.20994753 C-7.15719145 368.17939564 -2.35012559 371.41804985 4.9296875 372.0546875 C15.70046855 371.7701763 23.33178968 361.81742885 30.38656616 354.76060486 C31.08463336 354.06621435 31.78270055 353.37182385 32.5019213 352.6563912 C34.81922693 350.35001875 37.13301954 348.04015582 39.44677734 345.73022461 C41.11625758 344.06701676 42.78592502 342.4039968 44.45576477 340.7411499 C49.91939898 335.29846268 55.37778231 329.8505246 60.8359375 324.40234375 C62.24820667 322.99310856 63.66047595 321.58387347 65.07279443 320.17468769 C73.39271237 311.87322177 81.71127825 303.57040375 90.02582359 295.26355648 C92.05496654 293.23632296 94.08411498 291.20909494 96.11328125 289.18188477 C96.86965326 288.42623836 96.86965326 288.42623836 97.64130552 287.65532637 C105.80410981 279.50081687 113.97539743 271.35486413 122.15028088 263.21246582 C130.5676759 254.82824426 138.97742443 246.43641342 147.3798424 238.03718191 C152.08782146 233.33135781 156.79920228 228.62902858 161.51871872 223.93476677 C165.9615387 219.51534011 170.39460359 215.08635049 174.8206234 210.65010071 C176.43838511 209.0318463 178.05951849 207.41695371 179.68441582 205.80586433 C203.81052034 181.87320737 220.57355423 154.30562488 221.02734375 119.22607422 C220.6360093 87.36725709 208.15870185 58.44123674 185.49462891 36.08154297 C162.57351072 14.17102389 133.86147745 5.3570909 102.58984375 5.72265625 C70.29768433 6.66375007 45.90830913 22.78741766 23 44 C16.2492645 50.24778335 12.13019578 53.1258331 2.79296875 53.4609375 C-4.65749519 52.23135044 -9.49066123 47.95620768 -14.4375 42.5625 C-28.77144734 27.6798098 -44.74105313 17.31902415 -64.25 10.625 C-64.94601318 10.38595947 -65.64202637 10.14691895 -66.35913086 9.90063477 C-109.46788685 -3.97639395 -154.56667793 12.78750612 -184.27832031 45.02392578 Z " fill="#000000" transform="translate(251,67)"/>
</svg>
